<svg width="768" height="1024" viewBox="0 0 768 1024" fill="none" xmlns="http://www.w3.org/2000/svg">
<g clip-path="url(#clip0_)">
<rect width="768" height="1024" fill="#202024"/>
<circle cx="559" cy="118" r="450" transform="rotate(-180 559 118)" fill="url(#paint0_radial_)" fill-opacity="0.9"/>
<circle cx="294" cy="118" r="450" transform="rotate(-180 294 118)" fill="url(#paint1_radial_)" fill-opacity="0.6"/>
<g filter="url(#filter0_d_)">
<mask id="mask0_" style="mask-type:alpha" maskUnits="userSpaceOnUse" x="0" y="0" width="768" height="1024">
<rect width="768" height="1024" fill="#202024"/>
</mask>
<g mask="url(#mask0_)">
<path d="M768 192.324V-620.923L384 -804L0 -620.923V192.324L384 375.412L768 192.324Z" fill="url(#paint2_linear_)"/>
<g style="mix-blend-mode:luminosity" opacity="0.4">
<path d="M4.00008 -294.356V0.482892L195.06 147.916L386.119 0.482892V-294.356L195.06 -441.789L4.00008 -294.356Z" fill="url(#paint3_linear_)"/>
<path d="M386.119 0.481948V-294.357L577.179 -441.79L768.239 -294.357V0.481948L577.179 147.915L386.119 0.481948Z" fill="url(#paint4_linear_)"/>
<path d="M577.179 220.228V-76.1106L386.119 -224.294L195.06 -76.1106L195.06 220.228L386.119 368.412L577.179 220.228Z" fill="url(#paint5_linear_)"/>
</g>
</g>
</g>
</g>
<defs>
<filter id="filter0_d_" x="-4" y="0" width="776" height="383.412" filterUnits="userSpaceOnUse" color-interpolation-filters="sRGB">
<feFlood flood-opacity="0" result="BackgroundImageFix"/>
<feColorMatrix in="SourceAlpha" type="matrix" values="0 0 0 0 0 0 0 0 0 0 0 0 0 0 0 0 0 0 127 0" result="hardAlpha"/>
<feOffset dy="4"/>
<feGaussianBlur stdDeviation="2"/>
<feComposite in2="hardAlpha" operator="out"/>
<feColorMatrix type="matrix" values="0 0 0 0 0 0 0 0 0 0 0 0 0 0 0 0 0 0 0.25 0"/>
<feBlend mode="normal" in2="BackgroundImageFix" result="effect1_dropShadow_"/>
<feBlend mode="normal" in="SourceGraphic" in2="effect1_dropShadow_" result="shape"/>
</filter>
<radialGradient id="paint0_radial_" cx="0" cy="0" r="1" gradientUnits="userSpaceOnUse" gradientTransform="translate(559 118) rotate(90) scale(450)">
<stop stop-color="#FF0000"/>
<stop offset="1" stop-color="#121214" stop-opacity="0"/>
</radialGradient>
<radialGradient id="paint1_radial_" cx="0" cy="0" r="1" gradientUnits="userSpaceOnUse" gradientTransform="translate(294 118) rotate(90) scale(450)">
<stop stop-color="#2551C2"/>
<stop offset="1" stop-color="#121214" stop-opacity="0"/>
</radialGradient>
<linearGradient id="paint2_linear_" x1="-139.053" y1="6.91004" x2="845.872" y2="415.44" gradientUnits="userSpaceOnUse">
<stop stop-color="#4300D1"/>
<stop offset="1" stop-color="#FF0000"/>
</linearGradient>
<linearGradient id="paint3_linear_" x1="195.06" y1="134.356" x2="-88.9066" y2="-227.176" gradientUnits="userSpaceOnUse">
<stop stop-color="#54525A"/>
<stop offset="1" stop-color="#991D8D" stop-opacity="0"/>
<stop offset="1" stop-color="#BD4EC7" stop-opacity="0.63"/>
</linearGradient>
<linearGradient id="paint4_linear_" x1="768.239" y1="17.0521" x2="335.487" y2="-177.773" gradientUnits="userSpaceOnUse">
<stop stop-color="#DA88DC" stop-opacity="0.44"/>
<stop offset="1" stop-color="#CD5A5A"/>
</linearGradient>
<linearGradient id="paint5_linear_" x1="386.119" y1="-210.665" x2="671.87" y2="151.298" gradientUnits="userSpaceOnUse">
<stop stop-color="#54525A"/>
<stop offset="1" stop-color="#991D8D" stop-opacity="0"/>
<stop offset="1" stop-color="#BD4EC7" stop-opacity="0.63"/>
</linearGradient>
<clipPath id="clip0_">
<rect width="768" height="1024" fill="white"/>
</clipPath>
</defs>
</svg>
